HIERARCHY
ROOT Hips
{
	OFFSET 0.000000 100.481300 0.000000
	CHANNELS 6 Xposition Yposition Zposition Xrotation Yrotation Zrotation
	JOINT Spine
	{
		OFFSET -0.279200 12.230698 -2.892100
		CHANNELS 3 Xrotation Yrotation Zrotation
		JOINT Spine1
		{
			OFFSET -0.325700 14.269203 -3.374200
			CHANNELS 3 Xrotation Yrotation Zrotation
			JOINT Spine2
			{
				OFFSET -0.372300 16.307602 -0.352600
				CHANNELS 3 Xrotation Yrotation Zrotation
				JOINT Neck
				{
					OFFSET -0.418800 17.814194 8.416900
					CHANNELS 3 Xrotation Yrotation Zrotation
					JOINT Head
					{
						OFFSET 0.000000 7.031097 3.806800
						CHANNELS 3 Xrotation Yrotation Zrotation
						JOINT HeadTop_End
						{
							OFFSET 0.000000 24.646606 12.978600
							CHANNELS 3 Xrotation Yrotation Zrotation
							End Site
							{
								OFFSET 0.000000 27.854965 0.000000
							}
						}
					}
				}
				JOINT LeftShoulder
				{
					OFFSET 16.952999 14.495407 -7.737500
					CHANNELS 3 Xrotation Yrotation Zrotation
					JOINT LeftArm
					{
						OFFSET 9.308998 -2.777710 0.208600
						CHANNELS 3 Xrotation Yrotation Zrotation
						JOINT LeftForeArm
						{
							OFFSET 29.972298 0.000000 0.000000
							CHANNELS 3 Xrotation Yrotation Zrotation
							JOINT LeftHand
							{
								OFFSET 26.026505 0.000000 0.000000
								CHANNELS 3 Xrotation Yrotation Zrotation
								JOINT LeftHandThumb1
								{
									OFFSET 12.240501 -7.147949 9.207150
									CHANNELS 3 Xrotation Yrotation Zrotation
									JOINT LeftHandThumb2
									{
										OFFSET 4.138618 -2.389435 2.389433
										CHANNELS 3 Xrotation Yrotation Zrotation
										JOINT LeftHandThumb3
										{
											OFFSET 2.726913 -1.574387 1.574386
											CHANNELS 3 Xrotation Yrotation Zrotation
											JOINT LeftHandThumb4
											{
												OFFSET 3.941010 -2.275345 2.275342
												CHANNELS 3 Xrotation Yrotation Zrotation
												End Site
												{
													OFFSET -0.005798 5.087799 0.009903
												}
											}
										}
									}
								}
								JOINT LeftHandIndex1
								{
									OFFSET 24.424698 -1.985611 5.953459
									CHANNELS 3 Xrotation Yrotation Zrotation
									JOINT LeftHandIndex2
									{
										OFFSET 6.426697 0.000000 0.000000
										CHANNELS 3 Xrotation Yrotation Zrotation
										JOINT LeftHandIndex3
										{
											OFFSET 5.337898 0.000000 0.000000
											CHANNELS 3 Xrotation Yrotation Zrotation
											JOINT LeftHandIndex4
											{
												OFFSET 4.409401 0.000000 0.000000
												CHANNELS 3 Xrotation Yrotation Zrotation
												End Site
												{
													OFFSET 0.000000 4.409363 0.014373
												}
											}
										}
									}
								}
								JOINT LeftHandMiddle1
								{
									OFFSET 23.810104 0.000000 0.000000
									CHANNELS 3 Xrotation Yrotation Zrotation
									JOINT LeftHandMiddle2
									{
										OFFSET 7.176498 0.000000 0.000000
										CHANNELS 3 Xrotation Yrotation Zrotation
										JOINT LeftHandMiddle3
										{
											OFFSET 6.774902 0.000000 0.000000
											CHANNELS 3 Xrotation Yrotation Zrotation
											JOINT LeftHandMiddle4
											{
												OFFSET 5.403328 0.000000 0.000000
												CHANNELS 3 Xrotation Yrotation Zrotation
												End Site
												{
													OFFSET -0.027702 5.403244 0.017414
												}
											}
										}
									}
								}
								JOINT LeftHandRing1
								{
									OFFSET 22.908401 -0.839279 -6.020567
									CHANNELS 3 Xrotation Yrotation Zrotation
									JOINT LeftHandRing2
									{
										OFFSET 6.337502 0.000000 0.000000
										CHANNELS 3 Xrotation Yrotation Zrotation
										JOINT LeftHandRing3
										{
											OFFSET 5.779297 0.000000 0.000000
											CHANNELS 3 Xrotation Yrotation Zrotation
											JOINT LeftHandRing4
											{
												OFFSET 4.965698 0.000000 0.000000
												CHANNELS 3 Xrotation Yrotation Zrotation
												End Site
												{
													OFFSET 0.000000 4.965668 0.016186
												}
											}
										}
									}
								}
								JOINT LeftHandPinky1
								{
									OFFSET 20.037003 -1.530319 -10.950146
									CHANNELS 3 Xrotation Yrotation Zrotation
									JOINT LeftHandPinky2
									{
										OFFSET 5.254700 0.000000 0.000000
										CHANNELS 3 Xrotation Yrotation Zrotation
										JOINT LeftHandPinky3
										{
											OFFSET 4.810204 0.000000 0.000000
											CHANNELS 3 Xrotation Yrotation Zrotation
											JOINT LeftHandPinky4
											{
												OFFSET 3.647202 0.000000 0.000000
												CHANNELS 3 Xrotation Yrotation Zrotation
												End Site
												{
													OFFSET 0.000000 3.647186 0.011889
												}
											}
										}
									}
								}
							}
						}
					}
				}
				JOINT RightShoulder
				{
					OFFSET -15.141001 14.495407 -7.737500
					CHANNELS 3 Xrotation Yrotation Zrotation
					JOINT RightArm
					{
						OFFSET -9.308998 -2.777710 0.208500
						CHANNELS 3 Xrotation Yrotation Zrotation
						JOINT RightForeArm
						{
							OFFSET -29.972300 0.000000 0.000000
							CHANNELS 3 Xrotation Yrotation Zrotation
							JOINT RightHand
							{
								OFFSET -26.026505 0.000000 0.000000
								CHANNELS 3 Xrotation Yrotation Zrotation
								JOINT RightHandThumb1
								{
									OFFSET -12.240601 -7.148026 9.207092
									CHANNELS 3 Xrotation Yrotation Zrotation
									JOINT RightHandThumb2
									{
										OFFSET -4.138618 -2.389435 2.389433
										CHANNELS 3 Xrotation Yrotation Zrotation
										JOINT RightHandThumb3
										{
											OFFSET -2.726974 -1.574417 1.574421
											CHANNELS 3 Xrotation Yrotation Zrotation
											JOINT RightHandThumb4
											{
												OFFSET -3.941010 -2.275345 2.275343
												CHANNELS 3 Xrotation Yrotation Zrotation
												End Site
												{
													OFFSET 0.005814 5.087799 0.009927
												}
											}
										}
									}
								}
								JOINT RightHandIndex1
								{
									OFFSET -24.424698 -1.985657 5.953444
									CHANNELS 3 Xrotation Yrotation Zrotation
									JOINT RightHandIndex2
									{
										OFFSET -6.426697 0.000000 0.000000
										CHANNELS 3 Xrotation Yrotation Zrotation
										JOINT RightHandIndex3
										{
											OFFSET -5.337898 0.000000 0.000000
											CHANNELS 3 Xrotation Yrotation Zrotation
											JOINT RightHandIndex4
											{
												OFFSET -4.409401 0.000000 0.000000
												CHANNELS 3 Xrotation Yrotation Zrotation
												End Site
												{
													OFFSET 0.000000 4.409363 0.014408
												}
											}
										}
									}
								}
								JOINT RightHandMiddle1
								{
									OFFSET -23.810097 0.000000 0.000000
									CHANNELS 3 Xrotation Yrotation Zrotation
									JOINT RightHandMiddle2
									{
										OFFSET -7.176498 0.000000 0.000000
										CHANNELS 3 Xrotation Yrotation Zrotation
										JOINT RightHandMiddle3
										{
											OFFSET -6.774902 0.000000 0.000000
											CHANNELS 3 Xrotation Yrotation Zrotation
											JOINT RightHandMiddle4
											{
												OFFSET -5.403328 0.000000 0.000000
												CHANNELS 3 Xrotation Yrotation Zrotation
												End Site
												{
													OFFSET 0.027702 5.403244 0.017457
												}
											}
										}
									}
								}
								JOINT RightHandRing1
								{
									OFFSET -22.908302 -0.839325 -6.020576
									CHANNELS 3 Xrotation Yrotation Zrotation
									JOINT RightHandRing2
									{
										OFFSET -6.337502 0.000000 0.000000
										CHANNELS 3 Xrotation Yrotation Zrotation
										JOINT RightHandRing3
										{
											OFFSET -5.779297 0.000000 0.000000
											CHANNELS 3 Xrotation Yrotation Zrotation
											JOINT RightHandRing4
											{
												OFFSET -4.965698 0.000000 0.000000
												CHANNELS 3 Xrotation Yrotation Zrotation
												End Site
												{
													OFFSET 0.000000 4.965668 0.016226
												}
											}
										}
									}
								}
								JOINT RightHandPinky1
								{
									OFFSET -20.037003 -1.530334 -10.950259
									CHANNELS 3 Xrotation Yrotation Zrotation
									JOINT RightHandPinky2
									{
										OFFSET -5.254700 0.000000 0.000000
										CHANNELS 3 Xrotation Yrotation Zrotation
										JOINT RightHandPinky3
										{
											OFFSET -4.810204 0.000000 0.000000
											CHANNELS 3 Xrotation Yrotation Zrotation
											JOINT RightHandPinky4
											{
												OFFSET -3.647202 0.000000 0.000000
												CHANNELS 3 Xrotation Yrotation Zrotation
												End Site
												{
													OFFSET 0.000000 3.647186 0.011917
												}
											}
										}
									}
								}
							}
						}
					}
				}
			}
		}
	}
	JOINT LeftUpLeg
	{
		OFFSET 15.427100 -6.655098 0.678600
		CHANNELS 3 Xrotation Yrotation Zrotation
		JOINT LeftLeg
		{
			OFFSET 4.081073 -39.591068 13.024000
			CHANNELS 3 Xrotation Yrotation Zrotation
			JOINT LeftFoot
			{
				OFFSET -4.081074 -37.707932 -15.979700
				CHANNELS 3 Xrotation Yrotation Zrotation
				JOINT LeftToeBase
				{
					OFFSET 5.346399 -15.068900 20.645000
					CHANNELS 3 Xrotation Yrotation Zrotation
					JOINT LeftToe_End
					{
						OFFSET 2.754700 0.931300 11.300900
						CHANNELS 3 Xrotation Yrotation Zrotation
						End Site
						{
							OFFSET 0.000000 11.669021 0.000000
						}
					}
				}
			}
		}
	}
	JOINT RightUpLeg
	{
		OFFSET -15.569500 -6.655098 0.678600
		CHANNELS 3 Xrotation Yrotation Zrotation
		JOINT RightLeg
		{
			OFFSET -4.081825 -39.591045 13.023800
			CHANNELS 3 Xrotation Yrotation Zrotation
			JOINT RightFoot
			{
				OFFSET 4.081824 -37.707954 -15.979600
				CHANNELS 3 Xrotation Yrotation Zrotation
				JOINT RightToeBase
				{
					OFFSET -5.346400 -15.068900 20.645000
					CHANNELS 3 Xrotation Yrotation Zrotation
					JOINT RightToe_End
					{
						OFFSET -2.754700 0.931300 11.300900
						CHANNELS 3 Xrotation Yrotation Zrotation
						End Site
						{
							OFFSET 0.000000 11.669021 0.000000
						}
					}
				}
			}
		}
	}
}
MOTION
Frames: 4
Frame Time: 0.033333
-2.436103 80.082283 0.014884 -3.319841 7.355823 1.046011 1.667934 1.010433 -0.950567 3.270840 1.778406 0.249150 3.278914 1.763127 0.250743 6.356415 -5.126876 3.172645 -16.241568 -18.867165 -12.509978 0.000000 0.000002 0.000001 4.478494 -14.378516 -10.671070 16.965124 -22.604352 -43.267688 0.019315 -89.112932 0.019027 -21.717474 -12.910698 17.663151 29.887993 14.429437 -8.774153 38.121854 38.135036 -7.364023 10.558589 17.630093 4.995535 0.000000 0.000001 -0.000003 8.281284 6.737915 -101.767278 8.281305 6.737925 -101.767394 2.523451 5.330616 -50.639528 -0.000000 -0.000001 -0.000000 8.279392 6.738300 -101.751083 8.283204 6.737533 -101.783595 2.523439 5.330627 -50.639525 -0.000000 0.000000 -0.000000 8.281286 6.737915 -101.767278 8.281310 6.737927 -101.767401 2.523445 5.330613 -50.639531 0.000000 -0.000000 -0.000000 12.275158 5.913182 -101.697070 8.274838 2.652414 -101.688334 2.523453 5.330616 -50.639521 0.000000 -0.000001 0.000000 -0.929106 -5.939613 -8.385655 -51.693631 -52.590534 6.531104 0.000032 79.481429 -0.000020 -9.999880 41.873837 3.297373 43.117656 -0.319963 9.910199 16.908227 -51.364925 3.300688 2.873974 -21.213647 -4.843339 -0.000003 -0.000003 -0.000001 8.361649 -6.803660 101.765092 8.366931 -6.802547 101.809543 2.549657 -5.384019 50.655668 0.000000 -0.000000 -0.000002 8.361648 -6.803659 101.765099 8.366936 -6.802550 101.809543 2.549651 -5.384028 50.655661 0.000000 -0.000000 -0.000001 8.361649 -6.803658 101.765106 8.366932 -6.802555 101.809543 2.549656 -5.384019 50.655668 -0.000001 -0.000000 -0.000001 8.361649 -6.803660 101.765099 8.366944 -6.802557 101.809543 2.549654 -5.384013 50.655668 -0.000000 0.000000 -0.000001 -28.942462 -2.276322 17.411493 46.697785 -9.516967 -0.468938 -11.236201 -0.786839 -13.658947 -10.718082 -0.000000 0.000000 0.000000 -0.000000 -0.000000 -23.223511 -15.941289 -17.669018 49.641876 10.364553 -0.587794 -25.330383 2.144129 4.533657 -2.868989 -0.000000 -0.000004 0.000000 -0.000000 0.000000 
-2.271399 80.455307 0.065752 -3.435784 6.521285 1.008803 1.690044 0.946088 -0.932837 3.318914 1.666385 0.263899 3.326541 1.650890 0.265371 6.290366 -4.796949 2.864163 -16.184741 -17.391173 -12.364908 -0.000000 -0.000001 0.000001 4.410025 -13.945791 -10.733806 15.640319 -22.191729 -44.203369 -0.011978 -89.096423 -0.012012 -22.217816 -13.184097 17.797646 29.887999 14.429435 -8.774157 38.121857 38.135033 -7.364027 10.558591 17.630096 4.995532 0.000003 0.000002 0.000000 8.281288 6.737915 -101.767278 8.281307 6.737926 -101.767401 2.523449 5.330615 -50.639531 0.000000 0.000001 0.000000 8.279393 6.738300 -101.751083 8.283203 6.737534 -101.783602 2.523439 5.330626 -50.639528 0.000000 0.000001 0.000000 8.281288 6.737915 -101.767271 8.281310 6.737930 -101.767401 2.523445 5.330612 -50.639528 0.000000 -0.000000 -0.000000 12.275161 5.913181 -101.697070 8.274840 2.652414 -101.688334 2.523454 5.330616 -50.639521 0.000000 -0.000002 -0.000000 -0.581269 -4.574178 -6.844835 -46.706500 -48.892786 8.424653 0.000007 72.616461 -0.000005 -12.204547 43.135705 5.389306 43.117663 -0.319963 9.910193 16.908232 -51.364925 3.300684 2.873973 -21.213651 -4.843338 0.000000 0.000000 0.000000 8.361647 -6.803659 101.765099 8.366929 -6.802550 101.809543 2.549655 -5.384020 50.655668 0.000001 -0.000000 0.000000 8.361647 -6.803656 101.765099 8.366934 -6.802553 101.809543 2.549650 -5.384025 50.655657 -0.000000 -0.000000 -0.000001 8.361649 -6.803656 101.765106 8.366929 -6.802555 101.809543 2.549655 -5.384017 50.655671 0.000001 0.000000 0.000001 8.361649 -6.803658 101.765099 8.366942 -6.802559 101.809536 2.549654 -5.384013 50.655671 0.000001 0.000000 -0.000002 -28.127363 -1.519096 17.706955 46.093436 -9.541348 -0.652786 -11.292454 -0.561217 -13.417045 -10.699467 0.000002 0.000004 0.000000 0.000000 -0.000000 -22.838059 -15.309017 -17.468188 48.842949 10.332819 -0.375345 -24.741472 2.405520 4.637865 -2.779277 -0.000002 0.000001 0.000000 0.000000 0.000000 
-2.063112 80.903755 0.128341 -3.510850 5.789719 0.947048 1.696263 0.807955 -0.892324 3.338962 1.407888 0.286495 3.345384 1.392609 0.287746 6.354897 -4.391590 2.579933 -16.166896 -15.491137 -12.212628 0.000000 -0.000000 -0.000001 4.345756 -13.680524 -10.763089 14.876002 -21.982172 -44.825855 0.006852 -89.090617 0.006859 -22.508422 -13.327915 17.861129 29.887996 14.429434 -8.774153 38.121850 38.135036 -7.364027 10.558589 17.630089 4.995536 0.000004 -0.000001 0.000001 8.281286 6.737914 -101.767278 8.281305 6.737926 -101.767401 2.523450 5.330614 -50.639531 -0.000000 0.000001 -0.000000 8.279393 6.738300 -101.751083 8.283202 6.737532 -101.783602 2.523440 5.330628 -50.639531 0.000000 0.000000 -0.000000 8.281287 6.737914 -101.767278 8.281311 6.737930 -101.767394 2.523446 5.330614 -50.639528 0.000000 0.000001 -0.000000 12.275159 5.913181 -101.697063 8.274839 2.652415 -101.688328 2.523455 5.330616 -50.639518 -0.000001 -0.000000 0.000000 -0.190807 -2.958478 -4.540788 -38.096080 -44.848808 12.183312 -0.000003 68.419446 -0.000001 -14.355133 41.790973 6.682404 43.117663 -0.319962 9.910196 16.908225 -51.364928 3.300690 2.873975 -21.213647 -4.843341 -0.000000 0.000000 -0.000003 8.361648 -6.803660 101.765099 8.366930 -6.802550 101.809543 2.549656 -5.384018 50.655675 0.000000 -0.000000 0.000001 8.361648 -6.803659 101.765099 8.366934 -6.802552 101.809536 2.549650 -5.384027 50.655657 0.000000 -0.000001 -0.000001 8.361649 -6.803659 101.765106 8.366931 -6.802553 101.809543 2.549657 -5.384019 50.655664 -0.000001 -0.000001 0.000001 8.361649 -6.803661 101.765099 8.366945 -6.802559 101.809543 2.549651 -5.384012 50.655675 0.000001 -0.000001 0.000000 -27.326636 -0.794484 17.941963 45.358279 -9.562419 -0.871330 -11.273415 -0.395606 -13.116649 -10.677346 0.000000 -0.000002 -0.000000 0.000000 0.000000 -22.305479 -14.582560 -17.203319 47.845550 10.304666 -0.108695 -24.110090 2.425843 4.756804 -2.685125 0.000002 -0.000003 0.000000 -0.000000 -0.000000 
-1.816772 81.343925 0.208450 -3.536677 5.229382 0.909454 1.685612 0.600731 -0.883082 3.325588 1.006929 0.309644 3.330225 0.991546 0.310647 6.445672 -3.938842 2.353923 -16.243525 -13.314626 -12.001973 -0.000000 -0.000001 -0.000000 4.245288 -13.410848 -10.775485 14.744985 -22.031718 -45.046300 0.009710 -89.152014 0.009703 -22.501838 -13.319753 17.862309 29.888003 14.429435 -8.774154 38.121854 38.135033 -7.364028 10.558592 17.630098 4.995537 0.000002 -0.000003 0.000002 8.281288 6.737914 -101.767271 8.281306 6.737924 -101.767401 2.523449 5.330616 -50.639528 0.000001 -0.000001 -0.000000 8.279396 6.738301 -101.751077 8.283203 6.737532 -101.783609 2.523442 5.330627 -50.639528 -0.000000 -0.000001 0.000000 8.281288 6.737914 -101.767271 8.281309 6.737929 -101.767394 2.523446 5.330615 -50.639528 0.000000 -0.000001 -0.000000 12.275162 5.913180 -101.697070 8.274838 2.652414 -101.688334 2.523452 5.330616 -50.639525 0.000000 -0.000000 -0.000000 0.141794 -1.314575 -1.820528 -22.988561 -42.127050 22.428750 0.000024 69.577293 -0.000019 -13.587489 38.693582 5.156365 43.117659 -0.319961 9.910200 16.908229 -51.364928 3.300684 2.873973 -21.213647 -4.843342 -0.000000 0.000000 -0.000001 8.361647 -6.803660 101.765099 8.366928 -6.802551 101.809550 2.549654 -5.384019 50.655671 0.000002 0.000000 -0.000002 8.361647 -6.803659 101.765092 8.366934 -6.802550 101.809543 2.549649 -5.384026 50.655664 -0.000001 0.000000 -0.000000 8.361646 -6.803660 101.765106 8.366931 -6.802556 101.809543 2.549657 -5.384018 50.655668 0.000002 -0.000002 -0.000001 8.361647 -6.803661 101.765092 8.366942 -6.802557 101.809543 2.549651 -5.384013 50.655671 -0.000000 0.000000 0.000002 -26.599475 -0.247097 18.001088 44.623726 -9.577294 -1.081650 -11.258506 -0.224166 -12.798720 -10.623154 -0.000000 0.000001 0.000000 -0.000000 0.000000 -21.746252 -13.850213 -17.002135 46.838511 10.284665 0.169242 -23.546836 2.262283 4.903739 -2.592452 -0.000000 -0.000002 0.000000 0.000000 -0.000000 
